<?xml version="1.0" encoding="utf-8"?>
<!-- Generator: Adobe Illustrator 20.0.0, SVG Export Plug-In . SVG Version: 6.00 Build 0)  -->
<svg version="1.1" id="Layer_1" xmlns="http://www.w3.org/2000/svg" xmlns:xlink="http://www.w3.org/1999/xlink" x="0px" y="0px"
	 viewBox="0 0 215.3 40" style="enable-background:new 0 0 215.3 40;" xml:space="preserve">
<style type="text/css">
	.st0{fill:#474543;}
</style>
<path id="logo" class="st0" d="M32.5,26.8l-0.3,1.3c-1,0.4-1.7,0.7-2.3,0.9c-0.7,0.2-1.3,0.3-2,0.3c-1,0.1-2-0.3-2.7-0.9
	c-0.6-0.6-1-1.4-1-2.2c0-0.3,0-0.6,0-0.9c0-0.5,0.1-0.9,0.3-1.4l1.1-4c0.1-0.4,0.2-0.8,0.2-1.2c0-0.3,0.1-0.6,0.1-0.8
	c0-0.4-0.1-0.8-0.3-1.1c-0.3-0.3-0.7-0.4-1.1-0.4c-0.5,0-1,0.2-1.4,0.4c-0.8,0.4-1.5,0.9-2.1,1.5l-2.4,10.8h-4.9l3.7-16.2
	c0-0.2,0.1-0.3,0.1-0.5c0-0.1,0-0.2,0-0.4c0-0.3,0-0.6-0.2-0.8c-0.1-0.2-0.3-0.4-0.5-0.5c-0.3-0.1-0.5-0.2-0.8-0.3
	c-0.3,0-0.7-0.1-1.1-0.1l0.3-1.1l7.8-0.4l0.2,0.2l-1.7,7.5h0.1c0.9-0.8,1.8-1.4,2.8-1.9c1-0.5,2.1-0.7,3.2-0.7
	c0.9-0.1,1.9,0.3,2.6,0.9c0.6,0.6,0.9,1.4,0.9,2.2c0,0.2,0,0.5-0.1,1c0,0.4-0.1,0.9-0.2,1.3l-1.1,4.2c-0.1,0.3-0.2,0.7-0.3,1.2
	c-0.1,0.3-0.1,0.7-0.1,1c0,0.4,0.1,0.9,0.4,1.2c0.4,0.3,0.9,0.4,1.3,0.3c0.3,0,0.7-0.1,1-0.2C31.9,27.1,32.2,27,32.5,26.8z
	 M40.9,29.6c-1.1,0-2.1-0.1-3.1-0.5c-0.8-0.3-1.6-0.7-2.2-1.3c-0.6-0.6-1-1.3-1.3-2c-0.3-0.8-0.4-1.7-0.4-2.5c0-1.2,0.2-2.3,0.6-3.4
	c0.4-1.1,1.1-2.1,1.9-3c0.9-0.9,1.9-1.6,3.1-2.1c1.3-0.5,2.7-0.8,4.1-0.8c1.4-0.1,2.8,0.2,4,0.8c0.9,0.5,1.4,1.5,1.4,2.5
	c0,1.1-0.4,2.1-1.2,2.8c-0.9,0.8-2,1.4-3.2,1.7c-0.9,0.3-1.8,0.5-2.8,0.7c-0.8,0.1-1.7,0.3-2.8,0.4c0,0.5,0.1,1,0.2,1.5
	c0.1,0.5,0.2,1,0.4,1.4c0.2,0.4,0.6,0.8,1,1.1c0.5,0.3,1.1,0.4,1.7,0.4c1,0,2-0.2,3-0.7c0.9-0.5,1.7-1.3,2.3-2.2l1.1,0.9
	c-0.9,1.3-2,2.3-3.4,3C44,29.2,42.5,29.6,40.9,29.6z M44.3,17.8c0-0.7-0.1-1.4-0.5-1.9c-0.3-0.4-0.8-0.7-1.3-0.7
	c-0.8,0-1.5,0.6-2.1,1.9c-0.7,1.5-1.2,3.1-1.3,4.7c0.6-0.1,1.2-0.2,1.7-0.3c0.5-0.1,0.9-0.2,1.4-0.4c0.6-0.3,1.2-0.7,1.6-1.3
	C44.1,19.2,44.3,18.5,44.3,17.8L44.3,17.8z M70.1,26.8l-0.3,1.3c-1,0.4-1.8,0.7-2.3,0.9c-0.7,0.2-1.3,0.3-2,0.3
	c-1,0.1-2-0.3-2.7-0.9c-0.6-0.6-1-1.4-1-2.2c0-0.2,0-0.5,0-0.9c0-0.5,0.1-0.9,0.2-1.4l1.1-4c0.1-0.4,0.2-0.8,0.2-1.2
	c0-0.3,0.1-0.6,0.1-0.8c0-0.4-0.1-0.8-0.3-1.1c-0.3-0.3-0.7-0.4-1.1-0.4c-0.5,0-1,0.2-1.4,0.4c-0.8,0.4-1.5,0.9-2.1,1.5L56,29.1
	h-4.9l2.1-9.2c0.1-0.3,0.1-0.6,0.2-1.1c0.1-0.4,0.1-0.7,0.1-1.1c0-0.4-0.1-0.8-0.3-1.2c-0.4-0.3-0.8-0.4-1.3-0.3
	c-0.3,0-0.7,0.1-1,0.1c-0.3,0.1-0.6,0.2-0.8,0.3l0.3-1.3c0.8-0.3,1.6-0.6,2.3-0.8c0.7-0.2,1.4-0.3,2.1-0.3c0.9-0.1,1.8,0.2,2.6,0.7
	c0.6,0.5,1,1.2,1.1,1.9h0.1c0.9-0.8,1.9-1.5,3-2.1c1-0.5,2.1-0.7,3.3-0.7c0.9-0.1,1.9,0.3,2.6,0.9c0.6,0.6,0.9,1.4,0.9,2.2
	c0,0.2,0,0.5-0.1,1c0,0.4-0.1,0.9-0.2,1.3L67,23.6c-0.1,0.3-0.2,0.7-0.3,1.2c-0.1,0.3-0.1,0.7-0.1,1c-0.1,0.4,0.1,0.9,0.4,1.2
	c0.4,0.2,0.9,0.4,1.3,0.3c0.3,0,0.7-0.1,1-0.2C69.6,27,69.8,26.9,70.1,26.8L70.1,26.8z M90.9,26.8l-0.3,1.3c-1,0.4-1.8,0.7-2.3,0.9
	c-0.7,0.2-1.3,0.3-2,0.3c-1,0.1-2-0.3-2.7-0.9c-0.6-0.6-1-1.4-1-2.2c0-0.2,0-0.5,0-0.9c0-0.5,0.1-0.9,0.2-1.4l1.1-4
	c0.1-0.4,0.2-0.8,0.2-1.2c0-0.3,0.1-0.6,0.1-0.8c0-0.4-0.1-0.8-0.3-1.1c-0.3-0.3-0.7-0.4-1.1-0.4c-0.5,0-1,0.2-1.4,0.4
	c-0.8,0.4-1.5,0.9-2.1,1.5l-2.4,10.8h-4.9l2.1-9.2c0.1-0.3,0.1-0.6,0.2-1.1c0.1-0.4,0.1-0.7,0.1-1.1c0-0.4-0.1-0.8-0.3-1.2
	c-0.4-0.3-0.8-0.4-1.3-0.3c-0.3,0-0.7,0.1-1,0.1c-0.3,0.1-0.6,0.2-0.8,0.3l0.3-1.3c0.8-0.3,1.6-0.6,2.3-0.8c0.7-0.2,1.4-0.3,2.1-0.3
	c0.9-0.1,1.8,0.2,2.6,0.7c0.6,0.5,1,1.2,1.1,1.9h0.1c0.9-0.8,1.9-1.5,3-2.1c1-0.5,2.1-0.7,3.3-0.7c0.9-0.1,1.9,0.3,2.6,0.9
	c0.6,0.6,0.9,1.4,0.9,2.2c0,0.2,0,0.5-0.1,1c0,0.4-0.1,0.9-0.2,1.3l-1.1,4.2c-0.1,0.3-0.2,0.7-0.3,1.2c-0.1,0.3-0.1,0.7-0.1,1
	c-0.1,0.4,0.1,0.9,0.4,1.2c0.4,0.2,0.9,0.4,1.3,0.3c0.3,0,0.7-0.1,1-0.2C90.4,27,90.7,26.9,90.9,26.8L90.9,26.8z M99.4,29.6
	c-1.1,0-2.1-0.1-3.1-0.5c-0.8-0.3-1.6-0.7-2.2-1.3c-0.6-0.6-1-1.3-1.3-2c-0.3-0.8-0.4-1.7-0.4-2.5c0-1.2,0.2-2.3,0.6-3.4
	c0.4-1.1,1.1-2.1,1.9-3c0.9-0.9,1.9-1.6,3.1-2.1c1.3-0.5,2.7-0.8,4.1-0.8c1.4-0.1,2.8,0.2,4,0.8c0.9,0.5,1.4,1.5,1.4,2.5
	c0,1.1-0.4,2.1-1.2,2.8c-0.9,0.8-2,1.4-3.2,1.7c-0.9,0.3-1.8,0.5-2.8,0.7c-0.8,0.1-1.7,0.3-2.8,0.4c0,0.5,0.1,1,0.2,1.5
	c0.1,0.5,0.2,1,0.4,1.4c0.2,0.4,0.6,0.8,1,1.1c0.5,0.3,1.1,0.4,1.7,0.4c1,0,2-0.2,3-0.7c0.9-0.5,1.7-1.3,2.3-2.2l1.1,0.9
	c-0.9,1.3-2,2.3-3.4,3C102.4,29.2,100.9,29.6,99.4,29.6L99.4,29.6z M102.7,17.8c0-0.7-0.1-1.4-0.5-1.9c-0.3-0.4-0.8-0.7-1.3-0.7
	c-0.8,0-1.5,0.6-2.1,1.9c-0.7,1.5-1.2,3.1-1.3,4.7c0.6-0.1,1.2-0.2,1.7-0.3c0.5-0.1,0.9-0.2,1.4-0.4c0.6-0.3,1.2-0.7,1.6-1.3
	C102.6,19.2,102.8,18.5,102.7,17.8L102.7,17.8z M114.2,29.5c-1,0.1-2-0.3-2.8-0.9c-0.7-0.5-1.1-1.3-1.1-2.2c0-0.3,0-0.7,0.1-1
	c0-0.3,0.1-0.7,0.2-1.3l1.8-7.9h-2.7l0.4-1.5h2.8l0.8-3.4h4.8l-0.8,3.4h4l-0.4,1.5h-4l-1.8,7.9c-0.1,0.3-0.1,0.6-0.2,1
	c0,0.3-0.1,0.5-0.1,0.8c-0.1,0.4,0.1,0.9,0.5,1.2c0.4,0.2,0.9,0.4,1.4,0.3c0.4,0,0.8-0.1,1.3-0.2c0.4-0.1,0.8-0.2,1.1-0.3l-0.3,1.3
	c-0.8,0.4-1.7,0.7-2.6,0.9C115.8,29.4,115,29.5,114.2,29.5z M128.8,29.6c-1.1,0-2.1-0.1-3.1-0.5c-0.8-0.3-1.6-0.7-2.2-1.3
	c-0.6-0.6-1-1.3-1.3-2c-0.3-0.8-0.4-1.7-0.4-2.5c0-1.2,0.2-2.3,0.6-3.4c0.4-1.1,1.1-2.1,1.9-3c0.9-0.9,1.9-1.6,3.1-2.1
	c1.3-0.5,2.7-0.8,4.1-0.8c1.4-0.1,2.8,0.2,4,0.8c0.9,0.5,1.4,1.5,1.4,2.5c0,1.1-0.4,2.1-1.2,2.8c-0.9,0.8-2,1.4-3.2,1.7
	c-0.9,0.3-1.8,0.5-2.8,0.7c-0.8,0.1-1.7,0.3-2.8,0.4c0,0.5,0.1,1,0.2,1.5c0.1,0.5,0.2,1,0.4,1.4c0.2,0.4,0.6,0.8,1,1.1
	c0.5,0.3,1.1,0.4,1.7,0.4c1,0,2-0.2,3-0.7c0.9-0.5,1.7-1.3,2.3-2.2l1.1,0.9c-0.9,1.3-2,2.3-3.4,3C131.8,29.2,130.3,29.6,128.8,29.6
	L128.8,29.6z M132.1,17.8c0-0.7-0.1-1.4-0.5-1.9c-0.3-0.4-0.8-0.7-1.3-0.7c-0.8,0-1.5,0.6-2.1,1.9c-0.7,1.5-1.2,3.1-1.3,4.7
	c0.6-0.1,1.2-0.2,1.7-0.3c0.5-0.1,0.9-0.2,1.4-0.4c0.6-0.3,1.2-0.7,1.6-1.3C132,19.2,132.2,18.5,132.1,17.8L132.1,17.8z M145.8,29.6
	c-1.9,0.1-3.8-0.5-5.3-1.7c-1.3-1.2-2-2.9-1.9-4.7c0-1.2,0.2-2.3,0.6-3.4c0.9-2.3,2.6-4.1,4.8-5c1.3-0.5,2.7-0.8,4.1-0.8
	c1.4-0.1,2.8,0.2,4,1c0.9,0.6,1.4,1.6,1.4,2.7c0,0.3-0.1,0.7-0.1,1c-0.1,0.3-0.2,0.7-0.4,1c-0.2,0.3-0.5,0.5-0.8,0.7
	c-0.4,0.2-0.9,0.3-1.3,0.3c-0.6,0-1.3-0.2-1.8-0.6c-0.4-0.3-0.6-0.7-0.6-1.2c0-0.5,0.1-1,0.3-1.5c0.2-0.5,0.5-1,0.8-1.5
	c-0.2-0.2-0.3-0.3-0.5-0.4c-0.3-0.2-0.7-0.3-1.1-0.2c-1.1,0-2.1,0.7-2.9,2.1c-0.8,1.6-1.2,3.4-1.1,5.2c-0.1,1.3,0.2,2.5,0.9,3.6
	c0.6,0.8,1.5,1.3,2.5,1.2c0.9,0,1.9-0.2,2.7-0.6c0.9-0.6,1.6-1.3,2.2-2.2l1.1,0.9c-0.8,1.3-1.9,2.3-3.2,3
	C148.7,29.2,147.2,29.6,145.8,29.6L145.8,29.6z M161.1,26.6c0,1.6-1.3,2.9-2.9,2.9s-2.9-1.3-2.9-2.9l0,0c0-0.8,0.3-1.5,0.9-2.1
	c1.1-1.1,2.9-1.2,4-0.1c0,0,0.1,0.1,0.1,0.1C160.8,25.1,161.2,25.9,161.1,26.6L161.1,26.6z M174.9,27.2h-0.1c-0.3,0.3-0.7,0.6-1,0.8
	c-0.4,0.3-0.8,0.5-1.2,0.7c-0.4,0.2-0.9,0.4-1.4,0.6c-0.5,0.1-1,0.2-1.5,0.2c-1.5,0.1-2.9-0.5-3.9-1.5c-0.9-1.2-1.4-2.7-1.3-4.2
	c0-1.3,0.2-2.6,0.7-3.8c0.4-1.2,1.1-2.2,1.9-3.1c0.8-0.9,1.8-1.6,2.8-2.1c1.1-0.5,2.2-0.8,3.4-0.8c0.8,0,1.5,0.1,2.3,0.3
	c0.5,0.2,1.1,0.4,1.5,0.8l0.7-3.2c0-0.1,0.1-0.3,0.1-0.5c0-0.1,0-0.3,0-0.4c0-0.3-0.1-0.6-0.3-0.8c-0.2-0.2-0.4-0.4-0.7-0.5
	c-0.3-0.1-0.6-0.2-0.9-0.3c-0.4-0.1-0.7-0.1-1.2-0.2l0.3-1.1l8.3-0.4l0.2,0.2l-3.6,15.6c-0.1,0.3-0.1,0.7-0.2,1.1
	c-0.1,0.4-0.1,0.7-0.1,1.1c0,0.4,0.1,0.9,0.4,1.2c0.4,0.3,0.9,0.4,1.3,0.3c0.3,0,0.7-0.1,1-0.2c0.3-0.1,0.6-0.2,0.8-0.3l-0.3,1.3
	c-1,0.4-1.7,0.7-2.3,0.9c-0.6,0.2-1.3,0.3-2,0.3c-0.8,0-1.7-0.2-2.4-0.6C175.6,28.4,175.2,27.9,174.9,27.2L174.9,27.2z M176.7,17.7
	c0-0.3,0-0.5-0.1-0.8c-0.1-0.3-0.2-0.5-0.4-0.8c-0.2-0.2-0.4-0.4-0.7-0.6c-0.4-0.2-0.7-0.2-1.1-0.2c-0.7,0-1.3,0.3-1.8,0.7
	c-0.6,0.5-1.1,1.2-1.5,1.9c-0.4,0.9-0.7,1.8-0.9,2.7c-0.2,1.1-0.4,2.1-0.4,3.2c0,0.5,0,0.9,0.1,1.4c0.1,0.4,0.2,0.7,0.4,1.1
	c0.2,0.3,0.4,0.5,0.7,0.7c0.3,0.2,0.7,0.3,1.1,0.3c0.5,0,1-0.1,1.4-0.4c0.5-0.3,0.9-0.6,1.2-1L176.7,17.7z M202.7,16.3
	c0,0.7-0.3,1.4-0.8,1.9c-0.5,0.5-1.2,0.8-1.9,0.8c-0.6,0-1.2-0.1-1.7-0.4c-0.5-0.3-1-0.6-1.4-0.9l-0.6,0.4c-0.2,0.1-0.6,0.5-1.2,1
	c0.5,1.1,0.9,2.4,1.5,3.8c0.5,1.4,0.9,2.3,1.2,2.9c0.2,0.5,0.5,0.9,0.9,1.3c0.4,0.3,1,0.4,1.5,0.4c0.3,0,0.6-0.1,1-0.1
	c0.3-0.1,0.6-0.2,0.9-0.3l-0.3,1.4c-0.8,0.4-1.7,0.7-2.5,0.9c-0.6,0.2-1.3,0.3-1.9,0.3c-0.3,0-0.6,0-1-0.1c-0.4,0-0.7-0.1-1.1-0.3
	c-0.4-0.2-0.7-0.4-1.1-0.7c-0.4-0.4-0.7-1-0.9-1.5c-0.4-1-0.7-1.7-0.9-2.3c-0.2-0.5-0.4-1.2-0.8-2.1l-1,0.9l-1.3,5.6h-4.9l4-17.3
	c0-0.2,0.1-0.3,0.1-0.5c0-0.1,0-0.2,0-0.4c0-0.3,0-0.6-0.2-0.8c-0.1-0.2-0.3-0.4-0.5-0.5c-0.3-0.1-0.5-0.2-0.8-0.3
	c-0.3,0-0.7-0.1-1.1-0.1l0.3-1.1l7.8-0.4l0.2,0.2l-3.2,13.8h0.1c1.2-1.3,2.1-2.4,2.8-3.1c0.7-0.7,1.4-1.5,2.2-2.2
	c0.7-0.7,1.5-1.4,2.3-1.9c0.6-0.4,1.2-0.5,1.9-0.5c1.2-0.1,2.2,0.7,2.3,1.9C202.7,16,202.7,16.2,202.7,16.3L202.7,16.3z M212.4,3.9
	v33.2H3.9L1,40h214.3V1L212.4,3.9z M2.9,36V2.9h208.5l2.9-2.9H0v38.9L2.9,36z"/>
</svg>
