<svg id="Layer_1" xmlns="http://www.w3.org/2000/svg" viewBox="0 0 215.3 40"><style>.st0{fill:#474543}</style><path id="logo" class="st0" d="M32.5 26.8l-.3 1.3c-1 .4-1.7.7-2.3.9-.7.2-1.3.3-2 .3-1 .1-2-.3-2.7-.9-.6-.6-1-1.4-1-2.2v-.9c0-.5.1-.9.3-1.4l1.1-4c.1-.4.2-.8.2-1.2 0-.3.1-.6.1-.8 0-.4-.1-.8-.3-1.1-.3-.3-.7-.4-1.1-.4-.5 0-1 .2-1.4.4-.8.4-1.5.9-2.1 1.5l-2.4 10.8h-4.9l3.7-16.2c0-.2.1-.3.1-.5V12c0-.3 0-.6-.2-.8-.1-.2-.3-.4-.5-.5-.3-.1-.5-.2-.8-.3-.3 0-.7-.1-1.1-.1l.3-1.1 7.8-.4.2.2-1.7 7.5h.1c.9-.8 1.8-1.4 2.8-1.9 1-.5 2.1-.7 3.2-.7.9-.1 1.9.3 2.6.9.6.6.9 1.4.9 2.2 0 .2 0 .5-.1 1 0 .4-.1.9-.2 1.3l-1.1 4.2c-.1.3-.2.7-.3 1.2-.1.3-.1.7-.1 1 0 .4.1.9.4 1.2.4.3.9.4 1.3.3.3 0 .7-.1 1-.2-.1.1.2 0 .5-.2zm8.4 2.8c-1.1 0-2.1-.1-3.1-.5-.8-.3-1.6-.7-2.2-1.3-.6-.6-1-1.3-1.3-2-.3-.8-.4-1.7-.4-2.5 0-1.2.2-2.3.6-3.4.4-1.1 1.1-2.1 1.9-3 .9-.9 1.9-1.6 3.1-2.1 1.3-.5 2.7-.8 4.1-.8 1.4-.1 2.8.2 4 .8.9.5 1.4 1.5 1.4 2.5 0 1.1-.4 2.1-1.2 2.8-.9.8-2 1.4-3.2 1.7-.9.3-1.8.5-2.8.7-.8.1-1.7.3-2.8.4 0 .5.1 1 .2 1.5s.2 1 .4 1.4c.2.4.6.8 1 1.1.5.3 1.1.4 1.7.4 1 0 2-.2 3-.7.9-.5 1.7-1.3 2.3-2.2l1.1.9c-.9 1.3-2 2.3-3.4 3-1.3.9-2.8 1.3-4.4 1.3zm3.4-11.8c0-.7-.1-1.4-.5-1.9-.3-.4-.8-.7-1.3-.7-.8 0-1.5.6-2.1 1.9-.7 1.5-1.2 3.1-1.3 4.7.6-.1 1.2-.2 1.7-.3.5-.1.9-.2 1.4-.4.6-.3 1.2-.7 1.6-1.3.3-.6.5-1.3.5-2zm25.8 9l-.3 1.3c-1 .4-1.8.7-2.3.9-.7.2-1.3.3-2 .3-1 .1-2-.3-2.7-.9-.6-.6-1-1.4-1-2.2v-.9c0-.5.1-.9.2-1.4l1.1-4c.1-.4.2-.8.2-1.2 0-.3.1-.6.1-.8 0-.4-.1-.8-.3-1.1-.3-.3-.7-.4-1.1-.4-.5 0-1 .2-1.4.4-.8.4-1.5.9-2.1 1.5L56 29.1h-4.9l2.1-9.2c.1-.3.1-.6.2-1.1.1-.4.1-.7.1-1.1 0-.4-.1-.8-.3-1.2-.4-.3-.8-.4-1.3-.3-.3 0-.7.1-1 .1-.3.1-.6.2-.8.3l.3-1.3c.8-.3 1.6-.6 2.3-.8.7-.2 1.4-.3 2.1-.3.9-.1 1.8.2 2.6.7.6.5 1 1.2 1.1 1.9h.1c.9-.8 1.9-1.5 3-2.1 1-.5 2.1-.7 3.3-.7.9-.1 1.9.3 2.6.9.6.6.9 1.4.9 2.2 0 .2 0 .5-.1 1 0 .4-.1.9-.2 1.3L67 23.6c-.1.3-.2.7-.3 1.2-.1.3-.1.7-.1 1-.1.4.1.9.4 1.2.4.2.9.4 1.3.3.3 0 .7-.1 1-.2.3-.1.5-.2.8-.3zm20.8 0l-.3 1.3c-1 .4-1.8.7-2.3.9-.7.2-1.3.3-2 .3-1 .1-2-.3-2.7-.9-.6-.6-1-1.4-1-2.2v-.9c0-.5.1-.9.2-1.4l1.1-4c.1-.4.2-.8.2-1.2 0-.3.1-.6.1-.8 0-.4-.1-.8-.3-1.1-.3-.3-.7-.4-1.1-.4-.5 0-1 .2-1.4.4-.8.4-1.5.9-2.1 1.5l-2.4 10.8H72l2.1-9.2c.1-.3.1-.6.2-1.1.1-.4.1-.7.1-1.1 0-.4-.1-.8-.3-1.2-.4-.3-.8-.4-1.3-.3-.3 0-.7.1-1 .1-.3.1-.6.2-.8.3l.3-1.3c.8-.3 1.6-.6 2.3-.8.7-.2 1.4-.3 2.1-.3.9-.1 1.8.2 2.6.7.6.5 1 1.2 1.1 1.9h.1c.9-.8 1.9-1.5 3-2.1 1-.5 2.1-.7 3.3-.7.9-.1 1.9.3 2.6.9.6.6.9 1.4.9 2.2 0 .2 0 .5-.1 1 0 .4-.1.9-.2 1.3l-1.1 4.2c-.1.3-.2.7-.3 1.2-.1.3-.1.7-.1 1-.1.4.1.9.4 1.2.4.2.9.4 1.3.3.3 0 .7-.1 1-.2.2-.1.5-.2.7-.3zm8.5 2.8c-1.1 0-2.1-.1-3.1-.5-.8-.3-1.6-.7-2.2-1.3-.6-.6-1-1.3-1.3-2-.3-.8-.4-1.7-.4-2.5 0-1.2.2-2.3.6-3.4.4-1.1 1.1-2.1 1.9-3 .9-.9 1.9-1.6 3.1-2.1 1.3-.5 2.7-.8 4.1-.8 1.4-.1 2.8.2 4 .8.9.5 1.4 1.5 1.4 2.5 0 1.1-.4 2.1-1.2 2.8-.9.8-2 1.4-3.2 1.7-.9.3-1.8.5-2.8.7-.8.1-1.7.3-2.8.4 0 .5.1 1 .2 1.5s.2 1 .4 1.4c.2.4.6.8 1 1.1.5.3 1.1.4 1.7.4 1 0 2-.2 3-.7.9-.5 1.7-1.3 2.3-2.2l1.1.9c-.9 1.3-2 2.3-3.4 3-1.4.9-2.9 1.3-4.4 1.3zm3.3-11.8c0-.7-.1-1.4-.5-1.9-.3-.4-.8-.7-1.3-.7-.8 0-1.5.6-2.1 1.9-.7 1.5-1.2 3.1-1.3 4.7.6-.1 1.2-.2 1.7-.3.5-.1.9-.2 1.4-.4.6-.3 1.2-.7 1.6-1.3.4-.6.6-1.3.5-2zm11.5 11.7c-1 .1-2-.3-2.8-.9-.7-.5-1.1-1.3-1.1-2.2 0-.3 0-.7.1-1 0-.3.1-.7.2-1.3l1.8-7.9h-2.7l.4-1.5h2.8l.8-3.4h4.8l-.8 3.4h4l-.4 1.5h-4l-1.8 7.9c-.1.3-.1.6-.2 1 0 .3-.1.5-.1.8-.1.4.1.9.5 1.2.4.2.9.4 1.4.3.4 0 .8-.1 1.3-.2.4-.1.8-.2 1.1-.3l-.3 1.3c-.8.4-1.7.7-2.6.9-.8.3-1.6.4-2.4.4zm14.6.1c-1.1 0-2.1-.1-3.1-.5-.8-.3-1.6-.7-2.2-1.3-.6-.6-1-1.3-1.3-2-.3-.8-.4-1.7-.4-2.5 0-1.2.2-2.3.6-3.4.4-1.1 1.1-2.1 1.9-3 .9-.9 1.9-1.6 3.1-2.1 1.3-.5 2.7-.8 4.1-.8 1.4-.1 2.8.2 4 .8.9.5 1.4 1.5 1.4 2.5 0 1.1-.4 2.1-1.2 2.8-.9.8-2 1.4-3.2 1.7-.9.3-1.8.5-2.8.7-.8.1-1.7.3-2.8.4 0 .5.1 1 .2 1.5s.2 1 .4 1.4c.2.4.6.8 1 1.1.5.3 1.1.4 1.7.4 1 0 2-.2 3-.7.9-.5 1.7-1.3 2.3-2.2l1.1.9c-.9 1.3-2 2.3-3.4 3-1.4.9-2.9 1.3-4.4 1.3zm3.3-11.8c0-.7-.1-1.4-.5-1.9-.3-.4-.8-.7-1.3-.7-.8 0-1.5.6-2.1 1.9-.7 1.5-1.2 3.1-1.3 4.7.6-.1 1.2-.2 1.7-.3.5-.1.9-.2 1.4-.4.6-.3 1.2-.7 1.6-1.3.4-.6.6-1.3.5-2zm13.7 11.8c-1.9.1-3.8-.5-5.3-1.7-1.3-1.2-2-2.9-1.9-4.7 0-1.2.2-2.3.6-3.4.9-2.3 2.6-4.1 4.8-5 1.3-.5 2.7-.8 4.1-.8 1.4-.1 2.8.2 4 1 .9.6 1.4 1.6 1.4 2.7 0 .3-.1.7-.1 1-.1.3-.2.7-.4 1-.2.3-.5.5-.8.7-.4.2-.9.3-1.3.3-.6 0-1.3-.2-1.8-.6-.4-.3-.6-.7-.6-1.2s.1-1 .3-1.5c.2-.5.5-1 .8-1.5-.2-.2-.3-.3-.5-.4-.3-.2-.7-.3-1.1-.2-1.1 0-2.1.7-2.9 2.1-.8 1.6-1.2 3.4-1.1 5.2-.1 1.3.2 2.5.9 3.6.6.8 1.5 1.3 2.5 1.2.9 0 1.9-.2 2.7-.6.9-.6 1.6-1.3 2.2-2.2l1.1.9c-.8 1.3-1.9 2.3-3.2 3-1.5.7-3 1.1-4.4 1.1zm15.3-3c0 1.6-1.3 2.9-2.9 2.9s-2.9-1.3-2.9-2.9c0-.8.3-1.5.9-2.1 1.1-1.1 2.9-1.2 4-.1l.1.1c.5.6.9 1.4.8 2.1zm13.8.6h-.1c-.3.3-.7.6-1 .8-.4.3-.8.5-1.2.7-.4.2-.9.4-1.4.6-.5.1-1 .2-1.5.2-1.5.1-2.9-.5-3.9-1.5-.9-1.2-1.4-2.7-1.3-4.2 0-1.3.2-2.6.7-3.8.4-1.2 1.1-2.2 1.9-3.1.8-.9 1.8-1.6 2.8-2.1 1.1-.5 2.2-.8 3.4-.8.8 0 1.5.1 2.3.3.5.2 1.1.4 1.5.8l.7-3.2c0-.1.1-.3.1-.5V11c0-.3-.1-.6-.3-.8-.2-.2-.4-.4-.7-.5l-.9-.3c-.4-.1-.7-.1-1.2-.2l.3-1.1 8.3-.4.2.2-3.6 15.6c-.1.3-.1.7-.2 1.1-.1.4-.1.7-.1 1.1 0 .4.1.9.4 1.2.4.3.9.4 1.3.3.3 0 .7-.1 1-.2.3-.1.6-.2.8-.3l-.3 1.3c-1 .4-1.7.7-2.3.9-.6.2-1.3.3-2 .3-.8 0-1.7-.2-2.4-.6-.6-.2-1-.7-1.3-1.4zm1.8-9.5c0-.3 0-.5-.1-.8-.1-.3-.2-.5-.4-.8-.2-.2-.4-.4-.7-.6-.4-.2-.7-.2-1.1-.2-.7 0-1.3.3-1.8.7-.6.5-1.1 1.2-1.5 1.9-.4.9-.7 1.8-.9 2.7-.2 1.1-.4 2.1-.4 3.2 0 .5 0 .9.1 1.4.1.4.2.7.4 1.1.2.3.4.5.7.7.3.2.7.3 1.1.3.5 0 1-.1 1.4-.4.5-.3.9-.6 1.2-1l2-8.2zm26-1.4A2.732 2.732 0 0 1 200 19c-.6 0-1.2-.1-1.7-.4-.5-.3-1-.6-1.4-.9l-.6.4c-.2.1-.6.5-1.2 1 .5 1.1.9 2.4 1.5 3.8.5 1.4.9 2.3 1.2 2.9.2.5.5.9.9 1.3.4.3 1 .4 1.5.4.3 0 .6-.1 1-.1l.9-.3-.3 1.4c-.8.4-1.7.7-2.5.9-.6.2-1.3.3-1.9.3-.3 0-.6 0-1-.1-.4 0-.7-.1-1.1-.3-.4-.2-.7-.4-1.1-.7-.4-.4-.7-1-.9-1.5-.4-1-.7-1.7-.9-2.3-.2-.5-.4-1.2-.8-2.1l-1 .9-1.3 5.6h-4.9l4-17.3c0-.2.1-.3.1-.5V11c0-.3 0-.6-.2-.8-.1-.2-.3-.4-.5-.5-.3-.1-.5-.2-.8-.3-.3 0-.7-.1-1.1-.1l.3-1.1 7.8-.4.2.2-3.2 13.8h.1c1.2-1.3 2.1-2.4 2.8-3.1.7-.7 1.4-1.5 2.2-2.2.7-.7 1.5-1.4 2.3-1.9.6-.4 1.2-.5 1.9-.5 1.2-.1 2.2.7 2.3 1.9.1 0 .1.2.1.3zm9.7-12.4v33.2H3.9L1 40h214.3V1l-2.9 2.9zM2.9 36V2.9h208.5l2.9-2.9H0v38.9L2.9 36z"/></svg>